<svg width="48" height="48" viewBox="0 0 48 48" fill="none" xmlns="http://www.w3.org/2000/svg">
<circle cx="24" cy="24" r="24" fill="#FEFEFE"/>
<path d="M14.2333 21.6334L17.7667 23.1334C18.1667 22.3334 18.5944 21.5445 19.05 20.7667C19.5056 19.9889 19.9889 19.2445 20.5 18.5334L17.8667 18L14.2333 21.6334ZM19.3667 24.3334L23.8 28.7667C25.0667 28.1889 26.2556 27.5334 27.3667 26.8C28.4778 26.0667 29.3778 25.3556 30.0667 24.6667C31.8667 22.8667 33.1889 21.0223 34.0333 19.1334C34.8778 17.2445 35.3333 15.1111 35.4 12.7334C33.0222 12.8 30.8889 13.2556 29 14.1C27.1111 14.9445 25.2667 16.2667 23.4667 18.0667C22.7778 18.7556 22.0667 19.6556 21.3333 20.7667C20.6 21.8778 19.9444 23.0667 19.3667 24.3334ZM27 21.1334C26.5556 20.6889 26.3333 20.1389 26.3333 19.4834C26.3333 18.8278 26.5556 18.2778 27 17.8334C27.4444 17.3889 27.9944 17.1667 28.65 17.1667C29.3056 17.1667 29.8556 17.3889 30.3 17.8334C30.7444 18.2778 30.9667 18.8278 30.9667 19.4834C30.9667 20.1389 30.7444 20.6889 30.3 21.1334C29.8556 21.5778 29.3056 21.8 28.65 21.8C27.9944 21.8 27.4444 21.5778 27 21.1334ZM26.5 33.9L30.1333 30.2667L29.6 27.6334C28.8889 28.1445 28.1444 28.6278 27.3667 29.0834C26.5889 29.5389 25.8 29.9667 25 30.3667L26.5 33.9ZM37.3667 10.7667C37.5667 13.7889 37.1889 16.5445 36.2333 19.0334C35.2778 21.5223 33.7 23.8667 31.5 26.0667L31.4333 26.1334L31.3667 26.2L32.1 29.8667C32.1667 30.2 32.15 30.5223 32.05 30.8334C31.95 31.1445 31.7778 31.4223 31.5333 31.6667L25.8333 37.4L23 30.8L17.3333 25.1334L10.7333 22.3L16.4667 16.6C16.7111 16.3556 16.9889 16.1834 17.3 16.0834C17.6111 15.9834 17.9333 15.9667 18.2667 16.0334L21.9333 16.7667C21.9556 16.7445 21.9778 16.7278 22 16.7167C22.0222 16.7056 22.0444 16.6889 22.0667 16.6667C24.2667 14.4667 26.6111 12.8834 29.1 11.9167C31.5889 10.95 34.3444 10.5667 37.3667 10.7667ZM12.9667 29.1667C13.7444 28.3889 14.6944 27.9945 15.8167 27.9834C16.9389 27.9723 17.8889 28.3556 18.6667 29.1334C19.4444 29.9111 19.8278 30.8611 19.8167 31.9834C19.8056 33.1056 19.4111 34.0556 18.6333 34.8334C18.0556 35.4111 17.1611 35.8889 15.95 36.2667C14.7389 36.6445 12.9222 37 10.5 37.3334C10.8333 34.9111 11.1833 33.0889 11.55 31.8667C11.9167 30.6445 12.3889 29.7445 12.9667 29.1667ZM14.3667 30.6C14.0556 30.9334 13.7778 31.4556 13.5333 32.1667C13.2889 32.8778 13.0778 33.7889 12.9 34.9C14.0111 34.7223 14.9222 34.5111 15.6333 34.2667C16.3444 34.0223 16.8667 33.7445 17.2 33.4334C17.6222 33.0556 17.8389 32.5834 17.85 32.0167C17.8611 31.45 17.6667 30.9556 17.2667 30.5334C16.8444 30.1334 16.35 29.9389 15.7833 29.95C15.2167 29.9611 14.7444 30.1778 14.3667 30.6Z" fill="#7EB101"/>
</svg>
