<svg width="48" height="48" viewBox="0 0 48 48" fill="none" xmlns="http://www.w3.org/2000/svg">
<circle cx="24" cy="24" r="24" fill="#FEFEFE"/>
<path d="M23.5 9.33331C25.5222 9.33331 27.25 10.0389 28.6833 11.45C30.1167 12.8611 30.8333 14.5778 30.8333 16.6C30.8333 17.7555 30.5833 18.8444 30.0833 19.8666C29.5833 20.8889 28.8778 21.7555 27.9667 22.4666H26.8333V20.8C27.4778 20.2889 27.9722 19.6666 28.3167 18.9333C28.6611 18.2 28.8333 17.4222 28.8333 16.6C28.8333 15.1333 28.3111 13.8889 27.2667 12.8666C26.2222 11.8444 24.9667 11.3333 23.5 11.3333C22.0333 11.3333 20.7778 11.8444 19.7333 12.8666C18.6889 13.8889 18.1667 15.1333 18.1667 16.6C18.1667 17.4222 18.3389 18.2 18.6833 18.9333C19.0278 19.6666 19.5222 20.2889 20.1667 20.8V23.2C18.9222 22.5555 17.9445 21.6444 17.2333 20.4666C16.5222 19.2889 16.1667 18 16.1667 16.6C16.1667 14.5778 16.8833 12.8611 18.3167 11.45C19.75 10.0389 21.4778 9.33331 23.5 9.33331ZM22.2333 37.3333C21.8556 37.3333 21.5 37.2611 21.1667 37.1166C20.8333 36.9722 20.5445 36.7778 20.3 36.5333L13.4333 29.6666L15.3 27.7333C15.6111 27.4222 15.9611 27.1833 16.35 27.0166C16.7389 26.85 17.1445 26.8222 17.5667 26.9333L20.1667 27.5333V16.6666C20.1667 15.7333 20.4889 14.9444 21.1333 14.3C21.7778 13.6555 22.5667 13.3333 23.5 13.3333C24.4333 13.3333 25.2222 13.6555 25.8667 14.3C26.5111 14.9444 26.8333 15.7333 26.8333 16.6666V22.4H27.7C27.8111 22.4 27.9111 22.4222 28 22.4666C28.0889 22.5111 28.1889 22.5555 28.3 22.6L33.2333 25C33.7667 25.2444 34.1611 25.6389 34.4167 26.1833C34.6722 26.7278 34.7445 27.2889 34.6333 27.8666L33.4333 35.1333C33.3222 35.7778 33.0111 36.3055 32.5 36.7166C31.9889 37.1278 31.4111 37.3333 30.7667 37.3333H22.2333ZM21.9667 35.3333H31.3333L32.7667 27.0333L26.6667 24H24.8333V16.6666C24.8333 16.2666 24.7111 15.9444 24.4667 15.7C24.2222 15.4555 23.9 15.3333 23.5 15.3333C23.1 15.3333 22.7778 15.4555 22.5333 15.7C22.2889 15.9444 22.1667 16.2666 22.1667 16.6666V29.9666L17.0333 28.8666L16.2667 29.6333L21.9667 35.3333ZM31.3333 35.3333H21.9667H31.3333Z" fill="#7EB101"/>
</svg>
